<svg width="24" height="24" viewBox="0 0 24 24" fill="none" xmlns="http://www.w3.org/2000/svg">
<path d="M3.75 10.7419L5.52094 6.62143C5.80922 5.95066 6.54375 5.50659 7.36453 5.50659H16.6355C17.4563 5.50659 18.1908 5.95066 18.4791 6.62143L20.25 10.7419" stroke="#4B5563" stroke-linecap="round" stroke-linejoin="round"/>
<path d="M20.25 17.4731V10.7419H12H3.75V17.4731H20.25Z" stroke="#4B5563" stroke-linecap="round" stroke-linejoin="round"/>
<path d="M5.25047 17.4731V18.9689H3.75V17.4731" stroke="#4B5563" stroke-linecap="round" stroke-linejoin="round"/>
<path d="M20.2505 17.4731V18.9689H18.75V17.4731" stroke="#4B5563" stroke-linecap="round" stroke-linejoin="round"/>
<path d="M6.75023 14.4814C7.16458 14.4814 7.50047 14.1466 7.50047 13.7335C7.50047 13.3204 7.16458 12.9856 6.75023 12.9856C6.33589 12.9856 6 13.3204 6 13.7335C6 14.1466 6.33589 14.4814 6.75023 14.4814Z" stroke="#4B5563" stroke-linecap="round" stroke-linejoin="round"/>
<path d="M17.2502 14.4814C17.6646 14.4814 18.0005 13.7335 18.0005 13.7335L17.2502 12.9856C17.2502 12.9856 16.5 13.3204 16.5 13.7335C16.5 14.1466 16.8359 14.4814 17.2502 14.4814Z" stroke="#4B5563" stroke-linecap="round" stroke-linejoin="round"/>
</svg>
