<svg width="56" height="56" viewBox="0 0 56 56" fill="none" xmlns="http://www.w3.org/2000/svg">
<path d="M55.4159 39.6865C55.4159 39.6167 55.3637 39.5992 55.3765 39.6338C54.6367 38.6317 53.7124 37.8093 52.3372 37.1676C51.4043 36.7011 50.2848 36.328 48.8854 36.0481C47.6726 35.7682 46.2733 35.4883 44.594 35.3951C42.6348 35.2084 40.6757 35.3018 38.7165 35.8616C38.7165 35.8616 38.7165 35.8616 38.6233 35.8616C35.5446 36.6079 32.7458 36.2347 31.0666 34.3689C30.4136 33.6225 22.9501 24.8531 20.2446 21.7744C19.9647 21.4013 19.5916 21.028 19.3117 20.7481C10.7286 10.6724 7.37009 7.31388 5.87744 8.24677C5.59756 8.4334 5.31768 8.61991 4.85118 8.99315C4.19817 9.64616 3.54505 10.3925 2.89204 11.2322C1.21277 13.5645 0.0932563 16.27 0 19.3486C0 20.6548 0.559756 21.8675 1.58601 22.7072C4.75793 26.6255 6.53056 31.57 6.53056 36.5145V46.87C6.53056 47.4297 6.9037 47.8028 7.46345 47.8028H11.1951C11.7549 47.8028 12.128 47.4297 12.128 46.87V28.9578C13.714 30.2639 15.2999 31.8498 16.6993 33.6224C16.7926 33.7157 16.8859 33.9023 16.9792 34.1822C17.2591 34.6487 17.539 35.2084 17.9121 35.7682C18.9383 37.4475 19.9645 39.0335 21.084 40.6194C22.2968 42.2986 23.4163 43.698 24.5358 44.8176C26.4949 46.87 28.2675 47.9895 29.8535 47.8962C29.9467 47.8962 29.9467 47.8962 30.0401 47.8962C31.906 47.8962 34.5182 47.8962 37.5036 47.6163C37.5968 47.6163 37.7834 47.6163 37.8767 47.6163C37.9699 47.6163 38.0633 47.6163 38.1566 47.6163C38.2498 47.6163 38.3432 47.6163 38.4364 47.6163C40.7687 47.4297 43.1944 47.1498 45.62 46.7767C45.8066 46.7767 45.8999 46.7767 46.0865 46.6834C47.206 46.4968 48.3255 46.3103 49.4451 46.1237C49.6317 46.1237 49.8182 46.0304 50.0048 46.0304C51.1243 45.8438 52.2438 45.5639 53.3633 45.2841C53.55 45.2841 53.6432 45.1908 53.8298 45.0974C55.8824 44.1645 56.6286 41.5524 55.4159 39.6865ZM10.2622 45.9371H8.39634V36.5145C8.39634 32.3163 7.18357 28.0249 4.94455 24.3864C5.22443 24.4797 5.41105 24.5731 5.59756 24.6663C7.18357 25.4127 8.67622 26.3456 10.2622 27.4651V45.9371ZM30.1336 45.9371C30.0403 45.9371 29.947 45.9371 29.8537 45.9371C28.9208 46.0303 27.5214 45.1907 25.8421 43.4182C24.8159 42.2986 23.6964 40.9925 22.5769 39.4066C21.5506 37.914 20.4311 36.328 19.4982 34.7419C19.1251 34.1822 18.8452 33.6224 18.5653 33.1559C18.3787 32.876 18.2854 32.6894 18.1922 32.5962L18.0989 32.5029C14.7404 28.3047 10.7288 25.2261 6.62393 23.1737C6.15743 22.9871 5.78429 22.7072 5.31779 22.5207C5.22454 22.5207 5.13117 22.4274 5.03791 22.4274C4.47816 22.1475 3.82515 21.9609 3.26539 21.681C3.07877 21.5878 2.89226 21.4944 2.61238 21.3079C2.05262 20.8414 1.67949 20.1884 1.67949 19.442C1.95937 16.7365 2.89226 14.4042 4.38501 12.3518C4.94477 11.6054 5.59778 10.9524 6.15754 10.3927C6.34416 10.206 6.43741 10.1128 6.62404 10.0195C6.81066 10.1128 6.99717 10.2994 7.27705 10.486C7.93006 11.0458 8.86306 11.8854 10.0758 13.0982C12.1282 15.1506 14.7405 18.0427 18.0057 21.7744C18.2856 22.1475 18.6587 22.4274 18.9386 22.8007C21.6441 25.8793 29.1074 34.6488 29.7606 35.3952C31.5331 37.3543 33.8655 38.0073 36.5709 37.9141C35.4514 40.3397 34.7984 43.0451 34.705 45.8439C32.839 45.9371 31.3463 45.9371 30.1336 45.9371ZM53.3635 43.3249C53.1768 43.2316 53.0836 43.3249 52.9903 43.3249C51.6842 43.6048 50.4714 43.8847 49.1653 44.1645C48.6988 44.2578 48.139 44.3512 47.6726 44.4444C46.833 44.631 46.0866 44.7243 45.247 44.8176C44.594 44.9108 44.0342 45.0042 43.3811 45.0974C42.6347 45.1907 41.9817 45.2841 41.2353 45.3773C40.5823 45.4706 40.0226 45.4706 39.3694 45.5639C38.4366 45.6572 37.4103 45.7506 36.4774 45.8438C36.664 42.8584 37.4103 40.0596 38.7164 37.7273C38.8097 37.7273 38.9963 37.6341 39.0896 37.6341C40.8621 37.1676 42.6347 37.0743 44.4072 37.261C45.62 37.3542 46.7395 37.5408 47.6725 37.7275C49.9116 38.194 51.5908 38.847 52.6171 39.5933C52.9902 39.8732 53.2701 40.1531 53.55 40.433C53.55 40.433 53.55 40.433 53.6432 40.5262C53.7365 40.6195 53.7365 40.6195 53.8298 40.7129L53.9231 40.8061C54.483 41.6456 54.2031 42.8584 53.3635 43.3249Z" fill="#6B7280"/>
</svg>
