<svg width="56" height="56" viewBox="0 0 56 56" fill="none" xmlns="http://www.w3.org/2000/svg">
<g clip-path="url(#clip0_1_1498)">
<path d="M55.8199 38.5039L41.3714 15.9201V7.11161C41.3714 6.48041 40.8598 5.96875 40.2286 5.96875H15.7714C15.1402 5.96875 14.6285 6.48041 14.6285 7.11161V15.9201L0.180174 38.5039C-0.114264 38.9642 -0.041748 39.5684 0.353206 39.9458C0.462253 40.0501 3.07807 42.5276 7.7998 45.0164C12.1425 47.3051 19.1723 50.0336 28 50.0336C36.8277 50.0336 43.8574 47.3051 48.2002 45.0164C52.9219 42.5276 55.5377 40.0501 55.6468 39.9458C56.0419 39.5685 56.1142 38.9642 55.8199 38.5039ZM16.9143 8.25447H39.0857V15.1116H16.9143V8.25447ZM47.0595 43.0338C46.3398 43.4112 45.5405 43.8012 44.6694 44.188L35.0478 27.4562C34.7331 26.9091 34.0346 26.7204 33.4873 27.0352C32.9402 27.3499 32.7518 28.0484 33.0664 28.5956L42.537 45.0652C38.9385 46.4299 34.3981 47.5816 29.1431 47.7302V32.9249C29.1431 32.2937 28.6313 31.7821 28.0002 31.7821C27.369 31.7821 26.8573 32.2937 26.8573 32.9249V47.7302C21.6032 47.5817 17.0634 46.4304 13.4649 45.066L22.9336 28.5955C23.2482 28.0483 23.0597 27.3497 22.5125 27.0352C21.965 26.7204 21.2666 26.9091 20.9521 27.4564L11.3326 44.1889C10.4608 43.8019 9.66071 43.4116 8.94047 43.0338C5.83936 41.4075 3.67668 39.7646 2.63707 38.905L16.397 17.3974H39.6028L53.3628 38.905C52.323 39.7648 50.1604 41.4076 47.0595 43.0338Z" fill="#6B7280"/>
<path d="M27.9983 27.5703C27.3671 27.5703 26.8555 28.082 26.8555 28.7132V29.2248C26.8555 29.856 27.3671 30.3677 27.9983 30.3677C28.6294 30.3677 29.1412 29.856 29.1412 29.2248V28.7132C29.1412 28.082 28.6295 27.5703 27.9983 27.5703Z" fill="#6B7280"/>
<path d="M34.6819 10.5391H34.1702C33.5391 10.5391 33.0273 11.0507 33.0273 11.6819C33.0273 12.3131 33.5391 12.8248 34.1702 12.8248H34.6819C35.313 12.8248 35.8247 12.3131 35.8247 11.6819C35.8247 11.0507 35.313 10.5391 34.6819 10.5391Z" fill="#6B7280"/>
<path d="M30.474 10.5391H19.3733C18.7422 10.5391 18.2305 11.0507 18.2305 11.6819C18.2305 12.3131 18.7422 12.8248 19.3733 12.8248H30.474C31.1051 12.8248 31.6169 12.3131 31.6169 11.6819C31.6169 11.0507 31.1051 10.5391 30.474 10.5391Z" fill="#6B7280"/>
</g>
<defs>
<clipPath id="clip0_1_1498">
<rect width="56" height="56" fill="white"/>
</clipPath>
</defs>
</svg>
