<svg width="56" height="56" viewBox="0 0 56 56" fill="none" xmlns="http://www.w3.org/2000/svg">
<path d="M55.9725 45.8012C55.9842 45.8129 55.9725 45.7895 55.9725 45.7662L46.1814 9.11083C46.0881 8.76073 45.8431 8.48065 45.5163 8.34061L37.1722 4.7813L34.8148 1.9688C34.6398 1.75874 34.383 1.607 34.1029 1.56039L28.1979 0.603415C28.0696 0.580112 27.9529 0.580112 27.8245 0.603415L21.9196 1.56039C21.6395 1.60711 21.3944 1.74715 21.2077 1.9688L18.8503 4.7813L10.4946 8.34061C10.1678 8.48065 9.92277 8.76073 9.82945 9.11083L0.0383787 45.7662C-0.124964 46.3847 0.248438 47.0266 0.86691 47.1899C0.890214 47.1899 0.90192 47.2016 0.925224 47.2016L8.52238 48.7888C9.11754 48.9171 9.701 48.567 9.87605 47.9835L15.0225 30.782C16.2128 40.6665 10.7046 51.146 10.6346 51.2628C10.3312 51.8346 10.5412 52.5348 11.113 52.8382C11.1363 52.8499 11.1713 52.8615 11.1947 52.8732C16.0728 55.0088 27.486 55.3939 28.0345 55.4172C28.5129 55.4055 39.9262 55.0204 44.8042 52.8732C45.3994 52.6164 45.6678 51.928 45.3994 51.3328C45.3877 51.3095 45.3761 51.2745 45.3644 51.2511C45.3061 51.1343 39.7861 40.6548 40.9765 30.7703L46.1229 47.9718C46.298 48.5553 46.8814 48.9054 47.4766 48.7771L55.0737 47.1783C55.7041 47.05 56.1126 46.4314 55.9725 45.8012ZM22.6548 3.81273L27.9646 2.93748L33.2511 3.80102L33.6829 4.32617C33.0994 6.36845 30.8588 13.8839 27.953 20.1156C25.0589 13.8839 22.8182 6.36845 22.2231 4.32617L22.6548 3.81273ZM26.7977 53.0483C24.0436 52.9082 17.2049 52.4414 13.2488 51.181C14.9993 47.47 19.7607 35.8467 16.2247 25.8456C16.0613 25.3671 15.6062 25.0403 15.0926 25.0636C14.5908 25.0753 14.1474 25.4137 14.0073 25.8922L7.91561 46.303L2.5708 45.1826L11.8951 10.2544L16.7032 8.20057L15.1978 12.1917C14.9877 12.7401 15.2328 13.3703 15.7462 13.6388L18.2319 14.9342L16.5515 19.2987C16.4114 19.6605 16.4581 20.0689 16.6798 20.384L26.7977 34.8081V53.0483ZM27.9646 32.4041L18.967 19.5788L20.7875 14.8174C20.9976 14.269 20.7642 13.6388 20.2391 13.3703L17.7417 12.0633L19.6789 6.95181L19.9823 6.82347C20.1574 6.75345 20.2974 6.63672 20.4257 6.49668L20.4375 6.47337C21.5111 10.0561 23.9384 17.5365 26.926 23.3014C26.961 23.3482 26.996 23.4065 27.031 23.4532C27.0543 23.4765 27.066 23.5115 27.0893 23.5349C27.1827 23.6399 27.2877 23.7217 27.4044 23.7917C27.4161 23.7917 27.4161 23.8034 27.4277 23.8034C27.4744 23.8267 27.5211 23.8501 27.5795 23.8617C27.6145 23.8734 27.6378 23.885 27.6728 23.8967C27.7661 23.92 27.8712 23.9317 27.9646 23.9317C28.0579 23.9317 28.1629 23.92 28.2564 23.8967C28.2914 23.885 28.3147 23.8734 28.3497 23.8617C28.3964 23.85 28.4547 23.8267 28.5014 23.8034C28.5131 23.8034 28.5131 23.7917 28.5247 23.7917C28.6415 23.7217 28.7581 23.6283 28.8398 23.5233C28.8631 23.5 28.8748 23.4766 28.8981 23.4416C28.9332 23.3949 28.9682 23.3483 29.0032 23.2898C32.0023 17.5249 34.418 10.0444 35.4917 6.46178L35.5034 6.48508C35.6202 6.62512 35.7718 6.74186 35.9468 6.81188L36.2502 6.95192L38.1758 12.0517L35.6318 13.3587C35.1066 13.6388 34.8615 14.269 35.0833 14.8174L36.9388 19.5671L27.9646 32.4041ZM48.0137 46.3031L41.9102 25.904C41.7702 25.4256 41.3268 25.0871 40.8249 25.0755C40.3231 25.0637 39.868 25.3788 39.6929 25.8574C36.1686 35.8469 40.9183 47.4702 42.6805 51.1929C38.7126 52.4532 31.8157 52.92 29.1316 53.0601V34.7965L39.2028 20.3957C39.4245 20.0806 39.4711 19.6605 39.3311 19.2987L37.6273 14.9458L40.1597 13.6504C40.6849 13.382 40.93 12.7519 40.7199 12.1917L39.2145 8.20057L44.0225 10.2544L53.3469 45.1826L48.0137 46.3031Z" fill="#6B7280"/>
</svg>
