<svg width="12" height="20" viewBox="0 0 12 20" fill="none" xmlns="http://www.w3.org/2000/svg">
<path d="M10.7 6C10.501 5.43524 10.1374 4.94297 9.65627 4.58654C9.17509 4.23011 8.59825 4.02583 8 4H4C3.20435 4 2.44129 4.31607 1.87868 4.87868C1.31607 5.44129 1 6.20435 1 7C1 7.79565 1.31607 8.55871 1.87868 9.12132C2.44129 9.68393 3.20435 10 4 10H8C8.79565 10 9.55871 10.3161 10.1213 10.8787C10.6839 11.4413 11 12.2044 11 13C11 13.7956 10.6839 14.5587 10.1213 15.1213C9.55871 15.6839 8.79565 16 8 16H4C3.40175 15.9742 2.82491 15.7699 2.34373 15.4135C1.86255 15.057 1.49905 14.5648 1.3 14M6 1V4M6 16V19" stroke="#4B5563" stroke-linecap="round" stroke-linejoin="round"/>
</svg>
