<svg width="24" height="22" viewBox="0 0 24 22" fill="none" xmlns="http://www.w3.org/2000/svg">
<path d="M18.4687 21.5003C18.3109 21.501 18.1568 21.4518 18.0286 21.3597L12 16.9891L5.97139 21.3597C5.84259 21.4531 5.68742 21.5032 5.52832 21.5026C5.36921 21.502 5.21441 21.4509 5.08629 21.3565C4.95818 21.2622 4.86339 21.1295 4.81563 20.9777C4.76787 20.826 4.76961 20.6629 4.82061 20.5122L7.17186 13.548L1.07811 9.3691C0.946113 9.27868 0.846491 9.14843 0.793797 8.99736C0.741103 8.84629 0.7381 8.68233 0.785225 8.52944C0.83235 8.37654 0.927135 8.24272 1.05573 8.14753C1.18432 8.05234 1.33999 8.00077 1.49998 8.00035H9.0178L11.2865 1.01832C11.3354 0.867579 11.4308 0.736193 11.559 0.643009C11.6871 0.549826 11.8415 0.499634 12 0.499634C12.1584 0.499634 12.3128 0.549826 12.441 0.643009C12.5692 0.736193 12.6645 0.867579 12.7134 1.01832L14.9822 8.00269H22.5C22.6602 8.00261 22.8162 8.05383 22.9452 8.14884C23.0741 8.24384 23.1693 8.37765 23.2167 8.53066C23.2642 8.68368 23.2613 8.84785 23.2087 8.99915C23.1561 9.15045 23.0564 9.28091 22.9242 9.37144L16.8281 13.548L19.178 20.5103C19.216 20.6231 19.2267 20.7432 19.2092 20.8609C19.1917 20.9786 19.1464 21.0904 19.0771 21.1871C19.0078 21.2838 18.9165 21.3627 18.8107 21.4172C18.7049 21.4716 18.5877 21.5001 18.4687 21.5003Z" fill="#1F2937"/>
</svg>
