<svg width="56" height="56" viewBox="0 0 56 56" fill="none" xmlns="http://www.w3.org/2000/svg">
<path d="M56 6.5333V4.6667C56 2.0533 53.9467 0 51.3333 0H4.6667C2.0533 0 0 2.0533 0 4.6667V6.53341C0 8.0267 0.746703 9.4267 1.8667 10.2667C0.746703 11.1067 0 12.5067 0 14V19.6C0 22.2133 2.0533 24.2667 4.6667 24.2667H34.5334V44.8C34.5334 45.2667 34.8134 45.64 35.1867 45.7333L35.4667 45.8133V55.0666C35.4667 55.6266 35.84 55.9999 36.4 55.9999C36.96 55.9999 37.3333 55.6266 37.3333 55.0666V46.3466L38.2689 46.6139C38.2681 46.6315 38.2667 46.6487 38.2667 46.6666V55.0666C38.2667 55.6266 38.64 55.9999 39.2 55.9999C39.76 55.9999 40.1333 55.6266 40.1333 55.0666V47.1466L41.0814 47.4176C41.0721 47.476 41.0666 47.5366 41.0666 47.6V55.0667C41.0666 55.6267 41.4399 56 41.9999 56C42.5599 56 42.9332 55.6267 42.9332 55.0667V47.9467L43.9091 48.2256C43.8815 48.3201 43.8665 48.4229 43.8665 48.5334V55.0667C43.8665 55.6267 44.2398 56 44.7998 56C45.3598 56 45.7331 55.6267 45.7331 55.0667V48.7467L46.6664 49.0133V55.0667C46.6664 55.6267 47.0397 56 47.5997 56C48.1597 56 48.533 55.6267 48.533 55.0667V49.4667C48.7197 49.4667 48.9063 49.3734 49.093 49.28C49.373 49.0933 49.4663 48.8133 49.4663 48.5333V24.2667H51.333C53.9463 24.2667 55.9997 22.2134 55.9997 19.6V14C55.9997 12.5067 55.253 11.1067 54.133 10.2667C55.2533 9.4267 56 8.0267 56 6.5333ZM47.6 47.2267L36.4 44.0534V24.2667H39.2V29.8667C39.2 30.4267 39.5733 30.8 40.1333 30.8C40.6933 30.8 41.0666 30.4267 41.0666 29.8667V24.2667H42.9333V33.6C42.9333 34.16 43.3066 34.5333 43.8666 34.5333C44.4266 34.5333 44.7999 34.16 44.7999 33.6V24.2667H47.5999L47.6 47.2267ZM51.3333 9.3333H45.7333C45.1733 9.3333 44.8 9.70659 44.8 10.2666C44.8 10.8266 45.1733 11.1999 45.7333 11.1999H51.3333C52.92 11.1999 54.1333 12.4132 54.1333 13.9999H46.6666C46.1066 13.9999 45.7333 14.3732 45.7333 14.9332C45.7333 15.4932 46.1066 15.8665 46.6666 15.8665H54.1333V17.7332H41.0667C40.5067 17.7332 40.1334 18.1065 40.1334 18.6665C40.1334 19.2265 40.5067 19.5998 41.0667 19.5998H54.1334C54.1334 21.1865 52.9201 22.3998 51.3334 22.3998H48.5334H35.4667H4.6667C3.08 22.3998 1.8667 21.1865 1.8667 19.5998H9.33341C9.89341 19.5998 10.2667 19.2265 10.2667 18.6665C10.2667 18.1065 9.89341 17.7332 9.33341 17.7332H1.8667V15.8665H14.9334C15.4934 15.8665 15.8667 15.4932 15.8667 14.9332C15.8667 14.3732 15.4933 14 14.9333 14H1.8667C1.8667 12.4133 3.08 11.2 4.6667 11.2H10.2667C10.8267 11.2 11.2 10.8267 11.2 10.2667C11.2 9.7067 10.8267 9.33341 10.2667 9.33341H4.6667C3.40987 9.33341 2.38809 8.57183 2.0172 7.4667H6.53341C7.09341 7.4667 7.4667 7.09341 7.4667 6.53341C7.4667 5.97341 7.0933 5.6 6.5333 5.6H1.8667V4.6667C1.8667 3.08 3.08 1.8667 4.6667 1.8667H51.3334C52.5902 1.8667 53.612 2.62828 53.9829 3.73341H42C41.44 3.73341 41.0667 4.1067 41.0667 4.6667C41.0667 5.2267 41.44 5.6 42 5.6H54.1333V6.5333C54.1333 8.12 52.92 9.3333 51.3333 9.3333Z" fill="#6B7280"/>
</svg>
